<mxfile host="65bd71144e">
    <diagram id="ay4PgDP19M-thZAXrY4s" name="IF">
        <mxGraphModel dx="1453" dy="503" grid="1" gridSize="10" guides="1" tooltips="1" connect="1" arrows="1" fold="1" page="1" pageScale="1" pageWidth="827" pageHeight="1169" math="0" shadow="0">
            <root>
                <mxCell id="0"/>
                <mxCell id="1" parent="0"/>
                <mxCell id="6" value="" style="edgeStyle=none;html=1;" parent="1" source="2" target="4" edge="1">
                    <mxGeometry relative="1" as="geometry"/>
                </mxCell>
                <mxCell id="2" value="Start" style="rounded=1;whiteSpace=wrap;html=1;" parent="1" vertex="1">
                    <mxGeometry x="220" y="20" width="120" height="60" as="geometry"/>
                </mxCell>
                <mxCell id="9" value="" style="edgeStyle=none;html=1;startArrow=none;" parent="1" source="13" target="5" edge="1">
                    <mxGeometry relative="1" as="geometry"/>
                </mxCell>
                <mxCell id="3" value="Anweisung" style="rounded=0;whiteSpace=wrap;html=1;" parent="1" vertex="1">
                    <mxGeometry x="220" y="240" width="120" height="60" as="geometry"/>
                </mxCell>
                <mxCell id="7" value="" style="edgeStyle=none;html=1;" parent="1" source="4" target="3" edge="1">
                    <mxGeometry relative="1" as="geometry"/>
                </mxCell>
                <mxCell id="8" value="Ja" style="edgeLabel;html=1;align=center;verticalAlign=middle;resizable=0;points=[];" parent="7" vertex="1" connectable="0">
                    <mxGeometry x="-0.4257" relative="1" as="geometry">
                        <mxPoint as="offset"/>
                    </mxGeometry>
                </mxCell>
                <mxCell id="14" value="" style="edgeStyle=none;html=1;entryX=0.617;entryY=0.47;entryDx=0;entryDy=0;entryPerimeter=0;" parent="1" source="4" target="13" edge="1">
                    <mxGeometry relative="1" as="geometry">
                        <mxPoint x="470" y="360" as="targetPoint"/>
                        <Array as="points">
                            <mxPoint x="440" y="160"/>
                            <mxPoint x="440" y="340"/>
                        </Array>
                    </mxGeometry>
                </mxCell>
                <mxCell id="16" value="nein" style="edgeLabel;html=1;align=center;verticalAlign=middle;resizable=0;points=[];" parent="14" vertex="1" connectable="0">
                    <mxGeometry x="-0.1127" relative="1" as="geometry">
                        <mxPoint y="1" as="offset"/>
                    </mxGeometry>
                </mxCell>
                <mxCell id="4" value="a &amp;gt; b" style="rhombus;whiteSpace=wrap;html=1;" parent="1" vertex="1">
                    <mxGeometry x="240" y="120" width="80" height="80" as="geometry"/>
                </mxCell>
                <mxCell id="5" value="Stop" style="rounded=1;whiteSpace=wrap;html=1;" parent="1" vertex="1">
                    <mxGeometry x="220" y="370" width="120" height="60" as="geometry"/>
                </mxCell>
                <mxCell id="13" value="" style="shape=waypoint;sketch=0;size=6;pointerEvents=1;points=[];fillColor=default;resizable=0;rotatable=0;perimeter=centerPerimeter;snapToPoint=1;" parent="1" vertex="1">
                    <mxGeometry x="260" y="320" width="40" height="40" as="geometry"/>
                </mxCell>
                <mxCell id="15" value="" style="edgeStyle=none;html=1;endArrow=none;" parent="1" source="3" target="13" edge="1">
                    <mxGeometry relative="1" as="geometry">
                        <mxPoint x="280" y="300" as="sourcePoint"/>
                        <mxPoint x="280" y="370" as="targetPoint"/>
                    </mxGeometry>
                </mxCell>
            </root>
        </mxGraphModel>
    </diagram>
    <diagram name="IF_ELSE" id="NsHBAork6gkA8MiRtIZa">
        <mxGraphModel dx="1017" dy="352" grid="1" gridSize="10" guides="1" tooltips="1" connect="1" arrows="1" fold="1" page="1" pageScale="1" pageWidth="827" pageHeight="1169" math="0" shadow="0">
            <root>
                <mxCell id="kFa9sKDXYtgOmey_jSdH-0"/>
                <mxCell id="kFa9sKDXYtgOmey_jSdH-1" parent="kFa9sKDXYtgOmey_jSdH-0"/>
                <mxCell id="kFa9sKDXYtgOmey_jSdH-2" value="" style="edgeStyle=none;html=1;" parent="kFa9sKDXYtgOmey_jSdH-1" source="kFa9sKDXYtgOmey_jSdH-3" target="kFa9sKDXYtgOmey_jSdH-10" edge="1">
                    <mxGeometry relative="1" as="geometry"/>
                </mxCell>
                <mxCell id="kFa9sKDXYtgOmey_jSdH-3" value="Start" style="rounded=1;whiteSpace=wrap;html=1;" parent="kFa9sKDXYtgOmey_jSdH-1" vertex="1">
                    <mxGeometry x="220" y="20" width="120" height="60" as="geometry"/>
                </mxCell>
                <mxCell id="kFa9sKDXYtgOmey_jSdH-16" value="" style="edgeStyle=none;html=1;" parent="kFa9sKDXYtgOmey_jSdH-1" source="kFa9sKDXYtgOmey_jSdH-10" target="kFa9sKDXYtgOmey_jSdH-15" edge="1">
                    <mxGeometry relative="1" as="geometry">
                        <Array as="points">
                            <mxPoint x="160" y="160"/>
                        </Array>
                    </mxGeometry>
                </mxCell>
                <mxCell id="kFa9sKDXYtgOmey_jSdH-18" value="Ja" style="edgeLabel;html=1;align=center;verticalAlign=middle;resizable=0;points=[];" parent="kFa9sKDXYtgOmey_jSdH-16" vertex="1" connectable="0">
                    <mxGeometry x="-0.3143" y="-2" relative="1" as="geometry">
                        <mxPoint x="-1" as="offset"/>
                    </mxGeometry>
                </mxCell>
                <mxCell id="kFa9sKDXYtgOmey_jSdH-10" value="a &amp;gt; b" style="rhombus;whiteSpace=wrap;html=1;" parent="kFa9sKDXYtgOmey_jSdH-1" vertex="1">
                    <mxGeometry x="240" y="120" width="80" height="80" as="geometry"/>
                </mxCell>
                <mxCell id="kFa9sKDXYtgOmey_jSdH-11" value="Stop" style="rounded=1;whiteSpace=wrap;html=1;" parent="kFa9sKDXYtgOmey_jSdH-1" vertex="1">
                    <mxGeometry x="220" y="390" width="120" height="60" as="geometry"/>
                </mxCell>
                <mxCell id="kFa9sKDXYtgOmey_jSdH-23" value="" style="edgeStyle=none;html=1;" parent="kFa9sKDXYtgOmey_jSdH-1" source="kFa9sKDXYtgOmey_jSdH-14" target="kFa9sKDXYtgOmey_jSdH-22" edge="1">
                    <mxGeometry relative="1" as="geometry">
                        <Array as="points">
                            <mxPoint x="400" y="360"/>
                        </Array>
                    </mxGeometry>
                </mxCell>
                <mxCell id="kFa9sKDXYtgOmey_jSdH-14" value="Anweisung 2" style="rounded=0;whiteSpace=wrap;html=1;" parent="kFa9sKDXYtgOmey_jSdH-1" vertex="1">
                    <mxGeometry x="340" y="240" width="120" height="60" as="geometry"/>
                </mxCell>
                <mxCell id="kFa9sKDXYtgOmey_jSdH-21" value="" style="edgeStyle=none;html=1;" parent="kFa9sKDXYtgOmey_jSdH-1" source="kFa9sKDXYtgOmey_jSdH-15" target="kFa9sKDXYtgOmey_jSdH-20" edge="1">
                    <mxGeometry relative="1" as="geometry">
                        <Array as="points">
                            <mxPoint x="160" y="360"/>
                        </Array>
                    </mxGeometry>
                </mxCell>
                <mxCell id="kFa9sKDXYtgOmey_jSdH-15" value="&#10;&#10;&lt;span style=&quot;color: rgb(240, 240, 240); font-family: helvetica; font-size: 12px; font-style: normal; font-weight: 400; letter-spacing: normal; text-align: center; text-indent: 0px; text-transform: none; word-spacing: 0px; background-color: rgb(42, 42, 42); display: inline; float: none;&quot;&gt;Anweisung 1&lt;/span&gt;&#10;&#10;" style="whiteSpace=wrap;html=1;" parent="kFa9sKDXYtgOmey_jSdH-1" vertex="1">
                    <mxGeometry x="100" y="240" width="120" height="60" as="geometry"/>
                </mxCell>
                <mxCell id="kFa9sKDXYtgOmey_jSdH-17" value="" style="endArrow=classic;html=1;entryX=0.5;entryY=0;entryDx=0;entryDy=0;exitX=1;exitY=0.5;exitDx=0;exitDy=0;" parent="kFa9sKDXYtgOmey_jSdH-1" source="kFa9sKDXYtgOmey_jSdH-10" target="kFa9sKDXYtgOmey_jSdH-14" edge="1">
                    <mxGeometry width="50" height="50" relative="1" as="geometry">
                        <mxPoint x="350" y="210" as="sourcePoint"/>
                        <mxPoint x="370" y="130" as="targetPoint"/>
                        <Array as="points">
                            <mxPoint x="400" y="160"/>
                        </Array>
                    </mxGeometry>
                </mxCell>
                <mxCell id="kFa9sKDXYtgOmey_jSdH-19" value="Nein" style="edgeLabel;html=1;align=center;verticalAlign=middle;resizable=0;points=[];" parent="kFa9sKDXYtgOmey_jSdH-17" vertex="1" connectable="0">
                    <mxGeometry x="-0.3285" y="-1" relative="1" as="geometry">
                        <mxPoint x="-1" as="offset"/>
                    </mxGeometry>
                </mxCell>
                <mxCell id="kFa9sKDXYtgOmey_jSdH-24" value="" style="endArrow=classic;html=1;entryX=0.5;entryY=0;entryDx=0;entryDy=0;startArrow=none;" parent="kFa9sKDXYtgOmey_jSdH-1" source="kFa9sKDXYtgOmey_jSdH-20" target="kFa9sKDXYtgOmey_jSdH-11" edge="1">
                    <mxGeometry width="50" height="50" relative="1" as="geometry">
                        <mxPoint x="280" y="360" as="sourcePoint"/>
                        <mxPoint x="250" y="240" as="targetPoint"/>
                    </mxGeometry>
                </mxCell>
                <mxCell id="kFa9sKDXYtgOmey_jSdH-20" value="" style="shape=waypoint;sketch=0;size=6;pointerEvents=1;points=[];fillColor=default;resizable=0;rotatable=0;perimeter=centerPerimeter;snapToPoint=1;" parent="kFa9sKDXYtgOmey_jSdH-1" vertex="1">
                    <mxGeometry x="260" y="340" width="40" height="40" as="geometry"/>
                </mxCell>
                <mxCell id="kFa9sKDXYtgOmey_jSdH-25" value="" style="endArrow=none;html=1;entryDx=0;entryDy=0;startArrow=none;" parent="kFa9sKDXYtgOmey_jSdH-1" source="kFa9sKDXYtgOmey_jSdH-22" target="kFa9sKDXYtgOmey_jSdH-20" edge="1">
                    <mxGeometry width="50" height="50" relative="1" as="geometry">
                        <mxPoint x="280" y="360" as="sourcePoint"/>
                        <mxPoint x="280" y="390" as="targetPoint"/>
                    </mxGeometry>
                </mxCell>
                <mxCell id="kFa9sKDXYtgOmey_jSdH-22" value="" style="shape=waypoint;sketch=0;size=6;pointerEvents=1;points=[];fillColor=default;resizable=0;rotatable=0;perimeter=centerPerimeter;snapToPoint=1;rounded=0;" parent="kFa9sKDXYtgOmey_jSdH-1" vertex="1">
                    <mxGeometry x="260" y="340" width="40" height="40" as="geometry"/>
                </mxCell>
                <mxCell id="kFa9sKDXYtgOmey_jSdH-26" value="" style="endArrow=none;html=1;entryDx=0;entryDy=0;" parent="kFa9sKDXYtgOmey_jSdH-1" target="kFa9sKDXYtgOmey_jSdH-22" edge="1">
                    <mxGeometry width="50" height="50" relative="1" as="geometry">
                        <mxPoint x="280" y="360" as="sourcePoint"/>
                        <mxPoint x="280" y="360" as="targetPoint"/>
                    </mxGeometry>
                </mxCell>
            </root>
        </mxGraphModel>
    </diagram>
    <diagram name="ELSE_IF" id="ourwbmO8lsiAtLG60SJ_">
        <mxGraphModel dx="904" dy="352" grid="1" gridSize="10" guides="1" tooltips="1" connect="1" arrows="1" fold="1" page="1" pageScale="1" pageWidth="827" pageHeight="1169" math="0" shadow="0">
            <root>
                <mxCell id="DGFS6RXGSOBxKA--PdRy-0"/>
                <mxCell id="DGFS6RXGSOBxKA--PdRy-1" parent="DGFS6RXGSOBxKA--PdRy-0"/>
                <mxCell id="DGFS6RXGSOBxKA--PdRy-2" value="" style="edgeStyle=none;html=1;" parent="DGFS6RXGSOBxKA--PdRy-1" source="DGFS6RXGSOBxKA--PdRy-3" target="DGFS6RXGSOBxKA--PdRy-10" edge="1">
                    <mxGeometry relative="1" as="geometry"/>
                </mxCell>
                <mxCell id="DGFS6RXGSOBxKA--PdRy-3" value="Start" style="rounded=1;whiteSpace=wrap;html=1;" parent="DGFS6RXGSOBxKA--PdRy-1" vertex="1">
                    <mxGeometry x="220" y="20" width="120" height="60" as="geometry"/>
                </mxCell>
                <mxCell id="WhtfuGE_pochCq7ILnbS-3" value="" style="edgeStyle=none;html=1;" parent="DGFS6RXGSOBxKA--PdRy-1" source="DGFS6RXGSOBxKA--PdRy-10" target="WhtfuGE_pochCq7ILnbS-2" edge="1">
                    <mxGeometry relative="1" as="geometry"/>
                </mxCell>
                <mxCell id="WhtfuGE_pochCq7ILnbS-5" value="Ja" style="edgeLabel;html=1;align=center;verticalAlign=middle;resizable=0;points=[];" parent="WhtfuGE_pochCq7ILnbS-3" vertex="1" connectable="0">
                    <mxGeometry x="-0.2708" y="-1" relative="1" as="geometry">
                        <mxPoint as="offset"/>
                    </mxGeometry>
                </mxCell>
                <mxCell id="WhtfuGE_pochCq7ILnbS-9" value="" style="edgeStyle=none;html=1;" parent="DGFS6RXGSOBxKA--PdRy-1" source="DGFS6RXGSOBxKA--PdRy-10" target="WhtfuGE_pochCq7ILnbS-7" edge="1">
                    <mxGeometry relative="1" as="geometry">
                        <Array as="points">
                            <mxPoint x="450" y="160"/>
                        </Array>
                    </mxGeometry>
                </mxCell>
                <mxCell id="WhtfuGE_pochCq7ILnbS-10" value="Nein" style="edgeLabel;html=1;align=center;verticalAlign=middle;resizable=0;points=[];" parent="WhtfuGE_pochCq7ILnbS-9" vertex="1" connectable="0">
                    <mxGeometry x="-0.2819" y="1" relative="1" as="geometry">
                        <mxPoint x="-1" as="offset"/>
                    </mxGeometry>
                </mxCell>
                <mxCell id="DGFS6RXGSOBxKA--PdRy-10" value="ist J. älter?" style="rhombus;whiteSpace=wrap;html=1;" parent="DGFS6RXGSOBxKA--PdRy-1" vertex="1">
                    <mxGeometry x="240" y="120" width="80" height="80" as="geometry"/>
                </mxCell>
                <mxCell id="DGFS6RXGSOBxKA--PdRy-11" value="Stop" style="rounded=1;whiteSpace=wrap;html=1;" parent="DGFS6RXGSOBxKA--PdRy-1" vertex="1">
                    <mxGeometry x="220" y="480" width="120" height="60" as="geometry"/>
                </mxCell>
                <mxCell id="WhtfuGE_pochCq7ILnbS-4" value="" style="edgeStyle=none;html=1;startArrow=none;" parent="DGFS6RXGSOBxKA--PdRy-1" source="WhtfuGE_pochCq7ILnbS-16" target="DGFS6RXGSOBxKA--PdRy-11" edge="1">
                    <mxGeometry relative="1" as="geometry"/>
                </mxCell>
                <mxCell id="WhtfuGE_pochCq7ILnbS-2" value="&quot;J. ist älter&quot;" style="shape=parallelogram;perimeter=parallelogramPerimeter;whiteSpace=wrap;html=1;fixedSize=1;" parent="DGFS6RXGSOBxKA--PdRy-1" vertex="1">
                    <mxGeometry x="220" y="260" width="120" height="60" as="geometry"/>
                </mxCell>
                <mxCell id="WhtfuGE_pochCq7ILnbS-12" value="" style="edgeStyle=none;html=1;" parent="DGFS6RXGSOBxKA--PdRy-1" target="WhtfuGE_pochCq7ILnbS-11" edge="1">
                    <mxGeometry relative="1" as="geometry">
                        <mxPoint x="450" y="300.0000000000001" as="sourcePoint"/>
                    </mxGeometry>
                </mxCell>
                <mxCell id="WhtfuGE_pochCq7ILnbS-13" value="Ja" style="edgeLabel;html=1;align=center;verticalAlign=middle;resizable=0;points=[];" parent="WhtfuGE_pochCq7ILnbS-12" vertex="1" connectable="0">
                    <mxGeometry x="-0.346" y="-1" relative="1" as="geometry">
                        <mxPoint as="offset"/>
                    </mxGeometry>
                </mxCell>
                <mxCell id="WhtfuGE_pochCq7ILnbS-15" value="" style="edgeStyle=none;html=1;" parent="DGFS6RXGSOBxKA--PdRy-1" edge="1">
                    <mxGeometry relative="1" as="geometry">
                        <mxPoint x="490" y="260" as="sourcePoint"/>
                        <mxPoint x="640" y="360" as="targetPoint"/>
                        <Array as="points">
                            <mxPoint x="640" y="260"/>
                        </Array>
                    </mxGeometry>
                </mxCell>
                <mxCell id="WhtfuGE_pochCq7ILnbS-21" value="Nein" style="edgeLabel;html=1;align=center;verticalAlign=middle;resizable=0;points=[];" parent="WhtfuGE_pochCq7ILnbS-15" vertex="1" connectable="0">
                    <mxGeometry x="-0.0898" y="-1" relative="1" as="geometry">
                        <mxPoint x="-1" as="offset"/>
                    </mxGeometry>
                </mxCell>
                <mxCell id="WhtfuGE_pochCq7ILnbS-7" value="ist J. gleich alt?" style="rhombus;whiteSpace=wrap;html=1;" parent="DGFS6RXGSOBxKA--PdRy-1" vertex="1">
                    <mxGeometry x="410" y="220" width="80" height="80" as="geometry"/>
                </mxCell>
                <mxCell id="WhtfuGE_pochCq7ILnbS-17" value="" style="edgeStyle=none;html=1;" parent="DGFS6RXGSOBxKA--PdRy-1" source="WhtfuGE_pochCq7ILnbS-11" target="WhtfuGE_pochCq7ILnbS-16" edge="1">
                    <mxGeometry relative="1" as="geometry">
                        <Array as="points">
                            <mxPoint x="450" y="400"/>
                        </Array>
                    </mxGeometry>
                </mxCell>
                <mxCell id="WhtfuGE_pochCq7ILnbS-11" value="&quot;John ist gleich alt&quot;" style="shape=parallelogram;perimeter=parallelogramPerimeter;whiteSpace=wrap;html=1;fixedSize=1;" parent="DGFS6RXGSOBxKA--PdRy-1" vertex="1">
                    <mxGeometry x="375" y="360" width="150" height="60" as="geometry"/>
                </mxCell>
                <mxCell id="WhtfuGE_pochCq7ILnbS-20" value="" style="edgeStyle=none;html=1;entryX=0.557;entryY=1.116;entryDx=0;entryDy=0;entryPerimeter=0;" parent="DGFS6RXGSOBxKA--PdRy-1" source="WhtfuGE_pochCq7ILnbS-14" target="WhtfuGE_pochCq7ILnbS-19" edge="1">
                    <mxGeometry relative="1" as="geometry">
                        <Array as="points">
                            <mxPoint x="640" y="420"/>
                            <mxPoint x="640" y="460"/>
                        </Array>
                    </mxGeometry>
                </mxCell>
                <mxCell id="WhtfuGE_pochCq7ILnbS-14" value="&quot;J. ist jünger&quot;" style="shape=parallelogram;perimeter=parallelogramPerimeter;whiteSpace=wrap;html=1;fixedSize=1;" parent="DGFS6RXGSOBxKA--PdRy-1" vertex="1">
                    <mxGeometry x="580" y="310" width="120" height="60" as="geometry"/>
                </mxCell>
                <mxCell id="WhtfuGE_pochCq7ILnbS-16" value="" style="shape=waypoint;sketch=0;size=6;pointerEvents=1;points=[];fillColor=default;resizable=0;rotatable=0;perimeter=centerPerimeter;snapToPoint=1;" parent="DGFS6RXGSOBxKA--PdRy-1" vertex="1">
                    <mxGeometry x="260" y="380" width="40" height="40" as="geometry"/>
                </mxCell>
                <mxCell id="WhtfuGE_pochCq7ILnbS-18" value="" style="edgeStyle=none;html=1;endArrow=none;" parent="DGFS6RXGSOBxKA--PdRy-1" source="WhtfuGE_pochCq7ILnbS-2" target="WhtfuGE_pochCq7ILnbS-16" edge="1">
                    <mxGeometry relative="1" as="geometry">
                        <mxPoint x="280" y="320" as="sourcePoint"/>
                        <mxPoint x="280" y="440" as="targetPoint"/>
                    </mxGeometry>
                </mxCell>
                <mxCell id="WhtfuGE_pochCq7ILnbS-19" value="" style="shape=waypoint;sketch=0;size=6;pointerEvents=1;points=[];fillColor=default;resizable=0;rotatable=0;perimeter=centerPerimeter;snapToPoint=1;" parent="DGFS6RXGSOBxKA--PdRy-1" vertex="1">
                    <mxGeometry x="260" y="440" width="40" height="40" as="geometry"/>
                </mxCell>
            </root>
        </mxGraphModel>
    </diagram>
    <diagram name="SWITCH_CASE" id="4QhA35BXchzYvdX226VF">
        <mxGraphModel dx="1644" dy="640" grid="1" gridSize="10" guides="1" tooltips="1" connect="1" arrows="1" fold="1" page="1" pageScale="1" pageWidth="827" pageHeight="1169" math="0" shadow="0">
            <root>
                <mxCell id="GgLf4C1dMOZIiqGs4-Fa-0"/>
                <mxCell id="GgLf4C1dMOZIiqGs4-Fa-1" parent="GgLf4C1dMOZIiqGs4-Fa-0"/>
                <mxCell id="GgLf4C1dMOZIiqGs4-Fa-30" value="" style="edgeStyle=none;html=1;" edge="1" parent="GgLf4C1dMOZIiqGs4-Fa-1" source="GgLf4C1dMOZIiqGs4-Fa-3" target="GgLf4C1dMOZIiqGs4-Fa-29">
                    <mxGeometry relative="1" as="geometry"/>
                </mxCell>
                <mxCell id="GgLf4C1dMOZIiqGs4-Fa-3" value="Start" style="rounded=1;whiteSpace=wrap;html=1;" vertex="1" parent="GgLf4C1dMOZIiqGs4-Fa-1">
                    <mxGeometry x="280" y="40" width="120" height="60" as="geometry"/>
                </mxCell>
                <mxCell id="GgLf4C1dMOZIiqGs4-Fa-4" value="" style="edgeStyle=none;html=1;" edge="1" parent="GgLf4C1dMOZIiqGs4-Fa-1" source="GgLf4C1dMOZIiqGs4-Fa-8" target="GgLf4C1dMOZIiqGs4-Fa-11">
                    <mxGeometry relative="1" as="geometry"/>
                </mxCell>
                <mxCell id="GgLf4C1dMOZIiqGs4-Fa-5" value="Ja" style="edgeLabel;html=1;align=center;verticalAlign=middle;resizable=0;points=[];" vertex="1" connectable="0" parent="GgLf4C1dMOZIiqGs4-Fa-4">
                    <mxGeometry x="-0.2708" y="-1" relative="1" as="geometry">
                        <mxPoint as="offset"/>
                    </mxGeometry>
                </mxCell>
                <mxCell id="GgLf4C1dMOZIiqGs4-Fa-37" value="" style="edgeStyle=none;html=1;entryX=0.5;entryY=0;entryDx=0;entryDy=0;" edge="1" parent="GgLf4C1dMOZIiqGs4-Fa-1" source="GgLf4C1dMOZIiqGs4-Fa-8" target="GgLf4C1dMOZIiqGs4-Fa-34">
                    <mxGeometry relative="1" as="geometry">
                        <Array as="points">
                            <mxPoint x="480" y="240"/>
                        </Array>
                    </mxGeometry>
                </mxCell>
                <mxCell id="GgLf4C1dMOZIiqGs4-Fa-49" value="nein" style="edgeLabel;html=1;align=center;verticalAlign=middle;resizable=0;points=[];" vertex="1" connectable="0" parent="GgLf4C1dMOZIiqGs4-Fa-37">
                    <mxGeometry x="-0.5789" y="1" relative="1" as="geometry">
                        <mxPoint as="offset"/>
                    </mxGeometry>
                </mxCell>
                <mxCell id="GgLf4C1dMOZIiqGs4-Fa-8" value="&quot;driver?&quot;" style="rhombus;whiteSpace=wrap;html=1;" vertex="1" parent="GgLf4C1dMOZIiqGs4-Fa-1">
                    <mxGeometry x="300" y="200" width="80" height="80" as="geometry"/>
                </mxCell>
                <mxCell id="GgLf4C1dMOZIiqGs4-Fa-9" value="Stop" style="rounded=1;whiteSpace=wrap;html=1;" vertex="1" parent="GgLf4C1dMOZIiqGs4-Fa-1">
                    <mxGeometry x="280" y="640" width="120" height="60" as="geometry"/>
                </mxCell>
                <mxCell id="GgLf4C1dMOZIiqGs4-Fa-10" value="" style="edgeStyle=none;html=1;startArrow=none;" edge="1" parent="GgLf4C1dMOZIiqGs4-Fa-1" source="GgLf4C1dMOZIiqGs4-Fa-21" target="GgLf4C1dMOZIiqGs4-Fa-9">
                    <mxGeometry relative="1" as="geometry"/>
                </mxCell>
                <mxCell id="GgLf4C1dMOZIiqGs4-Fa-11" value="&quot;ausgabe 1&quot;" style="shape=parallelogram;perimeter=parallelogramPerimeter;whiteSpace=wrap;html=1;fixedSize=1;" vertex="1" parent="GgLf4C1dMOZIiqGs4-Fa-1">
                    <mxGeometry x="280" y="480" width="120" height="40" as="geometry"/>
                </mxCell>
                <mxCell id="GgLf4C1dMOZIiqGs4-Fa-21" value="" style="shape=waypoint;sketch=0;size=6;pointerEvents=1;points=[];fillColor=default;resizable=0;rotatable=0;perimeter=centerPerimeter;snapToPoint=1;" vertex="1" parent="GgLf4C1dMOZIiqGs4-Fa-1">
                    <mxGeometry x="320" y="500" width="40" height="40" as="geometry"/>
                </mxCell>
                <mxCell id="GgLf4C1dMOZIiqGs4-Fa-31" value="" style="edgeStyle=none;html=1;" edge="1" parent="GgLf4C1dMOZIiqGs4-Fa-1" source="GgLf4C1dMOZIiqGs4-Fa-29" target="GgLf4C1dMOZIiqGs4-Fa-8">
                    <mxGeometry relative="1" as="geometry"/>
                </mxCell>
                <mxCell id="GgLf4C1dMOZIiqGs4-Fa-29" value="job, firstName&amp;nbsp;" style="rounded=0;whiteSpace=wrap;html=1;" vertex="1" parent="GgLf4C1dMOZIiqGs4-Fa-1">
                    <mxGeometry x="280" y="120" width="120" height="40" as="geometry"/>
                </mxCell>
                <mxCell id="GgLf4C1dMOZIiqGs4-Fa-40" value="" style="edgeStyle=none;html=1;" edge="1" parent="GgLf4C1dMOZIiqGs4-Fa-1" source="GgLf4C1dMOZIiqGs4-Fa-34" target="GgLf4C1dMOZIiqGs4-Fa-39">
                    <mxGeometry relative="1" as="geometry">
                        <Array as="points">
                            <mxPoint x="640" y="320"/>
                        </Array>
                    </mxGeometry>
                </mxCell>
                <mxCell id="GgLf4C1dMOZIiqGs4-Fa-51" value="nein" style="edgeLabel;html=1;align=center;verticalAlign=middle;resizable=0;points=[];" vertex="1" connectable="0" parent="GgLf4C1dMOZIiqGs4-Fa-40">
                    <mxGeometry x="-0.5179" y="1" relative="1" as="geometry">
                        <mxPoint as="offset"/>
                    </mxGeometry>
                </mxCell>
                <mxCell id="GgLf4C1dMOZIiqGs4-Fa-43" value="" style="edgeStyle=none;html=1;" edge="1" parent="GgLf4C1dMOZIiqGs4-Fa-1" source="GgLf4C1dMOZIiqGs4-Fa-34" target="GgLf4C1dMOZIiqGs4-Fa-41">
                    <mxGeometry relative="1" as="geometry"/>
                </mxCell>
                <mxCell id="GgLf4C1dMOZIiqGs4-Fa-50" value="ja" style="edgeLabel;html=1;align=center;verticalAlign=middle;resizable=0;points=[];" vertex="1" connectable="0" parent="GgLf4C1dMOZIiqGs4-Fa-43">
                    <mxGeometry x="0.3494" relative="1" as="geometry">
                        <mxPoint y="-1" as="offset"/>
                    </mxGeometry>
                </mxCell>
                <mxCell id="GgLf4C1dMOZIiqGs4-Fa-34" value="&quot;diver?&quot;" style="rhombus;whiteSpace=wrap;html=1;" vertex="1" parent="GgLf4C1dMOZIiqGs4-Fa-1">
                    <mxGeometry x="440" y="280" width="80" height="80" as="geometry"/>
                </mxCell>
                <mxCell id="GgLf4C1dMOZIiqGs4-Fa-44" value="" style="edgeStyle=none;html=1;" edge="1" parent="GgLf4C1dMOZIiqGs4-Fa-1" source="GgLf4C1dMOZIiqGs4-Fa-39" target="GgLf4C1dMOZIiqGs4-Fa-42">
                    <mxGeometry relative="1" as="geometry"/>
                </mxCell>
                <mxCell id="GgLf4C1dMOZIiqGs4-Fa-52" value="ja" style="edgeLabel;html=1;align=center;verticalAlign=middle;resizable=0;points=[];" vertex="1" connectable="0" parent="GgLf4C1dMOZIiqGs4-Fa-44">
                    <mxGeometry x="-0.4759" relative="1" as="geometry">
                        <mxPoint y="-1" as="offset"/>
                    </mxGeometry>
                </mxCell>
                <mxCell id="GgLf4C1dMOZIiqGs4-Fa-39" value="default" style="rhombus;whiteSpace=wrap;html=1;" vertex="1" parent="GgLf4C1dMOZIiqGs4-Fa-1">
                    <mxGeometry x="600" y="360" width="80" height="80" as="geometry"/>
                </mxCell>
                <mxCell id="GgLf4C1dMOZIiqGs4-Fa-46" value="" style="edgeStyle=none;html=1;" edge="1" parent="GgLf4C1dMOZIiqGs4-Fa-1" source="GgLf4C1dMOZIiqGs4-Fa-41" target="GgLf4C1dMOZIiqGs4-Fa-45">
                    <mxGeometry relative="1" as="geometry">
                        <Array as="points">
                            <mxPoint x="480" y="590"/>
                        </Array>
                    </mxGeometry>
                </mxCell>
                <mxCell id="GgLf4C1dMOZIiqGs4-Fa-41" value="&quot;ausgabe 2&quot;" style="shape=parallelogram;perimeter=parallelogramPerimeter;whiteSpace=wrap;html=1;fixedSize=1;" vertex="1" parent="GgLf4C1dMOZIiqGs4-Fa-1">
                    <mxGeometry x="420" y="480" width="120" height="40" as="geometry"/>
                </mxCell>
                <mxCell id="GgLf4C1dMOZIiqGs4-Fa-48" value="" style="edgeStyle=none;html=1;" edge="1" parent="GgLf4C1dMOZIiqGs4-Fa-1" source="GgLf4C1dMOZIiqGs4-Fa-42" target="GgLf4C1dMOZIiqGs4-Fa-47">
                    <mxGeometry relative="1" as="geometry">
                        <Array as="points">
                            <mxPoint x="640" y="610"/>
                        </Array>
                    </mxGeometry>
                </mxCell>
                <mxCell id="GgLf4C1dMOZIiqGs4-Fa-42" value="&quot;default&quot;" style="shape=parallelogram;perimeter=parallelogramPerimeter;whiteSpace=wrap;html=1;fixedSize=1;" vertex="1" parent="GgLf4C1dMOZIiqGs4-Fa-1">
                    <mxGeometry x="580" y="480" width="120" height="40" as="geometry"/>
                </mxCell>
                <mxCell id="GgLf4C1dMOZIiqGs4-Fa-45" value="" style="shape=waypoint;sketch=0;size=6;pointerEvents=1;points=[];fillColor=default;resizable=0;rotatable=0;perimeter=centerPerimeter;snapToPoint=1;" vertex="1" parent="GgLf4C1dMOZIiqGs4-Fa-1">
                    <mxGeometry x="320" y="570" width="40" height="40" as="geometry"/>
                </mxCell>
                <mxCell id="GgLf4C1dMOZIiqGs4-Fa-47" value="" style="shape=waypoint;sketch=0;size=6;pointerEvents=1;points=[];fillColor=default;resizable=0;rotatable=0;perimeter=centerPerimeter;snapToPoint=1;" vertex="1" parent="GgLf4C1dMOZIiqGs4-Fa-1">
                    <mxGeometry x="320" y="585" width="40" height="40" as="geometry"/>
                </mxCell>
            </root>
        </mxGraphModel>
    </diagram>
</mxfile>